<svg width="256" height="181" viewBox="0 0 256 181" fill="none" xmlns="http://www.w3.org/2000/svg">
<path fill-rule="evenodd" clip-rule="evenodd" d="M226.628 86.3672C225.099 86.3672 223.668 86.6872 222.337 87.3292C221.006 87.9219 219.845 88.7379 218.858 89.7743C217.872 90.8122 217.083 92.0214 216.491 93.4031C215.948 94.7374 215.678 96.1446 215.678 97.6262C215.678 98.8116 215.899 99.9476 216.344 101.033C216.787 102.071 217.379 102.984 218.12 103.775C218.908 104.565 219.822 105.182 220.857 105.626C221.892 106.12 223.003 106.367 224.186 106.367C225.617 106.367 226.972 106.047 228.257 105.404C229.541 104.811 230.65 103.997 231.587 102.959C232.572 101.873 233.337 100.639 233.879 99.2568C234.472 97.8734 234.768 96.4171 234.768 94.8864C234.768 92.4666 234.003 90.4414 232.474 88.8123C230.994 87.1817 229.045 86.3672 226.628 86.3672Z" fill="url(#paint0_linear)"/>
<path fill-rule="evenodd" clip-rule="evenodd" d="M148.858 80.1479C149.448 78.7645 150.166 77.332 151.003 75.8516C151.843 74.3195 152.78 72.7901 153.816 71.2594C154.902 69.727 156.109 68.3691 157.442 67.1837C158.822 65.9493 160.328 64.9619 161.955 64.222C163.582 63.4818 165.334 63.111 167.209 63.111H167.875C168.071 63.111 168.291 63.1348 168.538 63.1839C169.132 63.2838 169.65 63.5547 170.093 63.9999C170.587 64.4439 170.833 65.0365 170.833 65.778C170.833 66.6654 170.414 67.7288 169.577 68.9618C168.738 70.1486 167.209 71.4307 164.989 72.8141C164.496 73.1103 163.633 73.6792 162.4 74.5175C161.216 75.3574 159.809 76.2956 158.181 77.332C156.554 78.3699 154.802 79.4568 152.926 80.5916C151.103 81.7277 149.326 82.7403 147.601 83.6294C147.897 82.6912 148.317 81.5296 148.858 80.1479ZM98.9139 75.8516C99.7513 74.3195 100.689 72.7901 101.725 71.2594C102.811 69.727 104.019 68.3691 105.351 67.1837C106.732 65.9493 108.236 64.9619 109.864 64.222C111.493 63.4818 113.244 63.111 115.118 63.111H115.785C115.981 63.111 116.202 63.1348 116.449 63.1839C117.041 63.2838 117.559 63.5547 118.004 63.9999C118.498 64.4439 118.744 65.0365 118.744 65.778C118.744 66.6654 118.325 67.7288 117.486 68.9618C116.647 70.1486 115.118 71.4307 112.897 72.8141C112.405 73.1103 111.542 73.6792 110.308 74.5175C109.125 75.3574 107.72 76.2956 106.091 77.332C104.462 78.3699 102.713 79.4568 100.837 80.5916C99.1489 81.6429 97.5067 82.5764 95.9017 83.4165C95.8318 83.3196 95.7589 83.2244 95.6771 83.1364C95.9599 82.2862 96.3109 81.3137 96.7675 80.1479C97.3595 78.7645 98.0749 77.332 98.9139 75.8516ZM255.11 27.5558C254.52 25.8762 253.729 24.4927 252.743 23.4072C251.806 22.3201 250.695 21.5056 249.414 20.9621C248.182 20.42 246.873 20.1475 245.492 20.1475C242.533 20.1475 239.424 20.6657 236.17 21.7021C232.963 22.7401 229.658 24.5925 226.254 27.2578C222.851 29.9251 219.373 33.5553 215.822 38.1478C212.318 42.7401 208.817 48.567 205.314 55.6297H196.583C194.216 55.6297 192.415 56.1971 191.182 57.3334C189.949 58.4188 189.331 59.5551 189.331 60.7403C189.331 61.8751 189.825 62.8639 190.811 63.7037C191.799 64.5435 193.648 64.9619 196.361 64.9619H200.284L192.104 82.3144C191.606 82.575 190.884 82.9859 189.924 83.5548C188.641 84.3456 187.012 85.2838 185.04 86.3693C183.117 87.4562 180.947 88.6163 178.53 89.8508C176.113 91.0362 173.62 92.1484 171.057 93.1848C168.538 94.2212 165.975 95.0865 163.361 95.7774C160.796 96.4192 158.379 96.7409 156.109 96.7409C153.988 96.7409 152.286 96.3448 151.003 95.5555C149.722 94.7157 148.958 93.5794 148.711 92.1484C155.419 89.678 160.993 87.2344 165.433 84.8146C169.922 82.3457 173.498 79.9499 176.162 77.6297C178.826 75.2592 180.7 72.9375 181.784 70.6667C182.87 68.3944 183.413 66.2217 183.413 64.1474C183.413 60.6406 182.401 57.9008 180.377 55.9247C178.357 53.95 175.299 52.9627 171.203 52.9627C167.307 52.9627 163.633 53.5301 160.177 54.6664C156.776 55.8025 153.643 57.3081 150.783 59.1843C147.921 61.062 145.331 63.2347 143.014 65.7036C140.744 68.1234 138.821 70.6176 137.241 73.1847C135.663 75.752 134.455 78.3208 133.616 80.8893C132.929 82.9488 132.539 84.8713 132.414 86.667C130.623 87.6677 128.639 88.7281 126.439 89.8508C124.022 91.0362 121.53 92.1484 118.965 93.1848C116.449 94.2212 113.884 95.0865 111.27 95.7774C108.706 96.4192 106.289 96.7409 104.019 96.7409C101.898 96.7409 100.196 96.3448 98.9139 95.5555C97.6316 94.7157 96.8672 93.5794 96.6203 92.1484C103.329 89.678 108.904 87.2344 113.342 84.8146C117.831 82.3457 121.407 79.9499 124.071 77.6297C126.735 75.2592 128.609 72.9375 129.694 70.6667C130.779 68.3944 131.323 66.2217 131.323 64.1474C131.323 60.6406 130.311 57.9008 128.288 55.9247C126.266 53.95 123.208 52.9627 119.113 52.9627C115.216 52.9627 111.542 53.5301 108.089 54.6664C104.685 55.8025 101.553 57.3081 98.6908 59.1843C95.8318 61.062 93.2407 63.2347 90.9232 65.7036C88.6534 68.1234 86.7288 70.6176 85.152 73.1847C83.5723 75.752 82.3646 78.3208 81.5255 80.8893C80.6867 83.4058 80.2687 85.7275 80.2687 87.8509C80.2687 89.1644 80.3699 90.4479 80.5588 91.7062C79.1099 92.5966 77.4783 93.4381 75.6205 94.2212C72.8077 95.4066 69.6021 95.9993 66.0012 95.9993H64.9658C64.6192 95.9993 64.2489 95.974 63.8562 95.9249C61.8809 95.7774 60.0081 94.7901 58.2306 92.9615C56.4562 91.1343 54.8274 88.9381 53.3473 86.3693C51.918 83.7529 50.6848 81.0116 49.6481 78.148C48.6618 75.2337 47.9464 72.616 47.5017 70.2959C50.6595 69.7525 53.9157 68.8634 57.2698 67.6289C60.6729 66.3945 63.9797 64.8876 67.185 63.111C70.3907 61.3329 73.4012 59.3078 76.2109 57.0354C79.0727 54.7155 81.5642 52.1975 83.6853 49.4812C85.8049 46.7161 87.4829 43.7779 88.7158 40.6658C89.9996 37.506 90.6391 34.1971 90.6391 30.7396C90.6391 25.605 89.5787 21.111 87.4591 17.2587C85.387 13.4064 82.5743 10.2227 79.0236 7.70311C75.4717 5.1344 71.3767 3.20901 66.7403 1.92541C62.153 0.641801 57.3441 0 52.3121 0C47.182 0 42.324 0.543521 37.7367 1.62908C33.1479 2.6655 28.9056 4.07419 25.0084 5.85068C21.1604 7.57951 17.6828 9.60468 14.577 11.9262C11.4682 14.1971 8.8295 16.5677 6.65783 19.0366C4.53822 21.5056 2.88566 23.9745 1.70164 26.4436C0.568206 28.9125 0 31.2101 0 33.3334C0 35.6043 0.617292 37.3823 1.8489 38.6659C3.08199 39.9003 4.93238 40.5183 7.39858 40.5183C9.22368 40.5183 10.7528 40.0984 11.9859 39.2586C13.2205 38.4187 14.3301 37.3333 15.3163 36.0004C16.3515 34.6663 17.3392 33.1354 18.2763 31.4066C19.2134 29.6777 20.2487 27.9014 21.3836 26.0742C22.5676 24.2455 23.9479 22.469 25.5277 20.7402C27.1548 19.0113 29.1287 17.482 31.4462 16.1478C33.8142 14.8136 36.6001 13.728 39.8087 12.8882C43.0631 12.0483 46.9365 11.6284 51.4242 11.6284C55.4208 11.6284 58.848 12.0974 61.7083 13.0371C64.6192 13.9752 66.9872 15.2335 68.8124 16.8149C70.6866 18.3949 72.043 20.2458 72.8821 22.3693C73.77 24.4927 74.2132 26.7398 74.2132 29.1105C74.2132 32.4192 73.3759 35.8261 71.698 39.3332C70.0691 42.8385 67.8248 46.0235 64.9658 48.8885C62.104 51.7521 58.7499 54.1228 54.9017 55.999C51.1027 57.8262 47.06 58.7406 42.7672 58.7406H41.7303C41.4343 58.7406 41.1398 58.7153 40.8439 58.666C42.1262 55.9499 43.3591 53.3083 44.5432 50.7395C45.7271 48.1233 46.7625 45.7273 47.6504 43.5546C48.5384 41.3822 49.254 39.4566 49.7954 37.777C50.3397 36.0973 50.6104 34.7897 50.6104 33.8518C50.6104 32.9135 50.4632 32.1481 50.1657 31.5556C49.8697 30.9136 49.5262 30.4446 49.1306 30.1469C48.7347 29.8014 48.293 29.5795 47.7992 29.4811C47.3054 29.3324 46.886 29.2592 46.5407 29.2592C45.2586 29.2592 43.8023 29.9994 42.1752 31.481C40.597 32.9135 38.8953 34.8391 37.0701 37.2586C35.2928 39.6785 33.4438 42.4691 31.5205 45.6289C29.6448 48.7398 27.7721 51.9756 25.8966 55.332L4.06967 95.3322C3.52673 96.3701 3.10727 97.4808 2.81127 98.6662C2.51528 99.8516 2.36801 101.012 2.36801 102.148C2.36801 102.938 2.4662 103.777 2.66403 104.666C2.91095 105.555 3.3051 106.369 3.84804 107.111C4.38946 107.851 5.15549 108.469 6.14167 108.962C7.12787 109.456 8.41004 109.703 9.98971 109.703C11.913 109.703 13.689 109.011 15.3163 107.629C16.9435 106.246 18.4741 104.444 19.9036 102.222C21.3345 99.9497 22.642 97.4065 23.8245 94.592C25.0084 91.727 26.1435 88.8382 27.2277 85.9256C28.3137 83.0115 29.3265 80.197 30.2638 77.4807C31.1993 74.7156 32.1125 72.3211 32.9991 70.2959C34.5786 75.4317 36.38 80.3205 38.4015 84.9621C40.4244 89.5546 42.6675 93.5794 45.1352 97.0356C47.6014 100.493 50.3397 103.233 53.3473 105.258C56.3566 107.284 59.6378 108.296 63.1884 108.296C67.5286 108.296 72.1174 107.209 76.9516 105.037C79.2913 103.972 81.6549 102.603 84.0408 100.949C84.3876 101.466 84.7579 101.965 85.152 102.444C86.7794 104.369 88.7277 105.9 90.9976 107.036C93.315 108.173 95.9537 108.74 98.9139 108.74C102.366 108.74 105.869 108.271 109.42 107.333C112.972 106.444 116.376 105.308 119.633 103.926C122.936 102.542 126.043 101.037 128.955 99.4064C130.738 98.3953 132.37 97.4243 133.885 96.4834C134.706 98.7078 135.814 100.703 137.241 102.444C138.87 104.369 140.818 105.9 143.087 107.036C145.406 108.173 148.044 108.74 151.003 108.74C154.457 108.74 157.96 108.271 161.512 107.333C165.062 106.444 168.467 105.308 171.722 103.926C175.027 102.542 178.134 101.037 181.045 99.4064C182.52 98.5695 183.904 97.758 185.195 96.9702L174.164 120.37C173.62 121.506 173.201 122.493 172.905 123.332C172.61 124.222 172.462 124.988 172.462 125.629C172.462 126.913 172.931 127.851 173.867 128.444C174.805 129.036 175.866 129.333 177.05 129.333C177.888 129.333 178.8 129.135 179.786 128.74C180.774 128.395 181.735 127.876 182.672 127.184C183.611 126.493 184.473 125.655 185.262 124.666C186.052 123.728 186.718 122.691 187.259 121.555C188.049 119.975 189.086 117.827 190.368 115.11C191.65 112.443 193.081 109.456 194.66 106.148C196.238 102.789 197.89 99.2589 199.617 95.5555C201.393 91.8016 203.144 88.098 204.871 84.444C206.647 80.7897 208.323 77.3082 209.901 73.9992C211.53 70.6414 212.985 67.7035 214.267 65.1853H220.705H227.142C229.313 65.1347 231.532 65.0856 233.8 65.0366C236.119 64.9872 238.561 64.9129 241.126 64.8144C242.459 64.7148 243.543 64.5182 244.382 64.222C245.221 63.8765 245.862 63.4818 246.305 63.0366C246.799 62.5421 247.144 62.024 247.342 61.4804C247.54 60.9383 247.638 60.395 247.638 59.8514C247.638 58.7644 247.342 57.9499 246.75 57.4077C246.207 56.815 245.419 56.3937 244.382 56.148C243.396 55.9009 242.237 55.7534 240.904 55.7028C239.573 55.6537 238.141 55.6297 236.613 55.6297H219.373C220.605 52.6665 222.185 49.7777 224.108 46.9617C226.033 44.0982 228.03 41.5549 230.101 39.3332C232.222 37.1114 234.294 35.3333 236.317 33.9992C238.387 32.6664 240.189 31.9993 241.718 31.9993C243.002 31.9993 244.012 32.443 244.752 33.3334C245.541 34.2226 245.936 35.7027 245.936 37.777C245.936 38.3206 245.886 38.8639 245.787 39.4075C245.738 39.9497 245.715 40.5423 245.715 41.1841C245.715 42.1729 246.133 42.9128 246.972 43.4074C247.81 43.8511 248.722 44.0729 249.711 44.0729C250.105 44.0729 250.574 44.0238 251.117 43.9254C251.66 43.7779 252.2 43.5546 252.743 43.2584C253.286 42.9619 253.779 42.5928 254.223 42.1474C254.669 41.6531 254.964 41.0604 255.11 40.3696C255.703 37.8023 256 35.457 256 33.3334C256 31.1102 255.703 29.1849 255.11 27.5558Z" fill="#222222"/>
<path d="M24.453 141C26.313 141 27.923 141.31 29.283 141.93C30.663 142.55 31.723 143.43 32.463 144.57C33.203 145.71 33.573 147.06 33.573 148.62C33.573 150.16 33.203 151.51 32.463 152.67C31.723 153.81 30.663 154.69 29.283 155.31C27.923 155.91 26.313 156.21 24.453 156.21H20.223V162H15.363V141H24.453ZM24.183 152.25C25.643 152.25 26.753 151.94 27.513 151.32C28.273 150.68 28.653 149.78 28.653 148.62C28.653 147.44 28.273 146.54 27.513 145.92C26.753 145.28 25.643 144.96 24.183 144.96H20.223V152.25H24.183ZM56.0018 162.36C53.8218 162.36 51.8518 161.89 50.0918 160.95C48.3518 160.01 46.9818 158.72 45.9818 157.08C45.0018 155.42 44.5118 153.56 44.5118 151.5C44.5118 149.44 45.0018 147.59 45.9818 145.95C46.9818 144.29 48.3518 142.99 50.0918 142.05C51.8518 141.11 53.8218 140.64 56.0018 140.64C58.1818 140.64 60.1418 141.11 61.8818 142.05C63.6218 142.99 64.9918 144.29 65.9918 145.95C66.9918 147.59 67.4918 149.44 67.4918 151.5C67.4918 153.56 66.9918 155.42 65.9918 157.08C64.9918 158.72 63.6218 160.01 61.8818 160.95C60.1418 161.89 58.1818 162.36 56.0018 162.36ZM56.0018 158.22C57.2418 158.22 58.3618 157.94 59.3618 157.38C60.3618 156.8 61.1418 156 61.7018 154.98C62.2818 153.96 62.5718 152.8 62.5718 151.5C62.5718 150.2 62.2818 149.04 61.7018 148.02C61.1418 147 60.3618 146.21 59.3618 145.65C58.3618 145.07 57.2418 144.78 56.0018 144.78C54.7618 144.78 53.6418 145.07 52.6418 145.65C51.6418 146.21 50.8518 147 50.2718 148.02C49.7118 149.04 49.4318 150.2 49.4318 151.5C49.4318 152.8 49.7118 153.96 50.2718 154.98C50.8518 156 51.6418 156.8 52.6418 157.38C53.6418 157.94 54.7618 158.22 56.0018 158.22ZM111.38 141L104.51 162H99.2904L94.6704 147.78L89.9004 162H84.7104L77.8104 141H82.8504L87.5904 155.76L92.5404 141H97.0404L101.84 155.88L106.73 141H111.38ZM139.289 158.1V162H123.029V141H138.899V144.9H127.859V149.46H137.609V153.24H127.859V158.1H139.289ZM165.032 162L160.982 156.15H160.742H156.512V162H151.652V141H160.742C162.602 141 164.212 141.31 165.572 141.93C166.952 142.55 168.012 143.43 168.752 144.57C169.492 145.71 169.862 147.06 169.862 148.62C169.862 150.18 169.482 151.53 168.722 152.67C167.982 153.79 166.922 154.65 165.542 155.25L170.252 162H165.032ZM164.942 148.62C164.942 147.44 164.562 146.54 163.802 145.92C163.042 145.28 161.932 144.96 160.472 144.96H156.512V152.28H160.472C161.932 152.28 163.042 151.96 163.802 151.32C164.562 150.68 164.942 149.78 164.942 148.62ZM198.469 158.1V162H182.209V141H198.079V144.9H187.039V149.46H196.789V153.24H187.039V158.1H198.469ZM210.832 141H220.372C222.652 141 224.662 141.44 226.402 142.32C228.162 143.18 229.522 144.4 230.482 145.98C231.462 147.56 231.952 149.4 231.952 151.5C231.952 153.6 231.462 155.44 230.482 157.02C229.522 158.6 228.162 159.83 226.402 160.71C224.662 161.57 222.652 162 220.372 162H210.832V141ZM220.132 158.01C222.232 158.01 223.902 157.43 225.142 156.27C226.402 155.09 227.032 153.5 227.032 151.5C227.032 149.5 226.402 147.92 225.142 146.76C223.902 145.58 222.232 144.99 220.132 144.99H215.692V158.01H220.132Z" fill="#222222"/>
<defs>
<linearGradient id="paint0_linear" x1="225.223" y1="86.3672" x2="225.223" y2="106.367" gradientUnits="userSpaceOnUse">
<stop stop-color="#681CFF"/>
<stop offset="1" stop-color="#FD3F83"/>
</linearGradient>
</defs>
</svg>
